<mxfile host="app.diagrams.net" agent="Mozilla/5.0 (Windows NT 10.0; Win64; x64) AppleWebKit/537.36 (KHTML, like Gecko) Chrome/130.0.0.0 Safari/537.36" version="24.8.3" pages="2">
  <diagram id="C22Zyo9x9_IkmYV2H3KQ" name="Process order">
    <mxGraphModel dx="2500" dy="1636" grid="1" gridSize="10" guides="1" tooltips="1" connect="1" arrows="1" fold="1" page="0" pageScale="1" pageWidth="827" pageHeight="1169" math="0" shadow="0">
      <root>
        <mxCell id="0" />
        <mxCell id="1" parent="0" />
        <mxCell id="8uEbxN0wSlgFQSG_SQVq-2" value="" style="swimlane;startSize=0;swimlaneFillColor=default;" vertex="1" parent="1">
          <mxGeometry x="1163" y="480" width="400" height="85" as="geometry">
            <mxRectangle x="-20" y="701" width="50" height="40" as="alternateBounds" />
          </mxGeometry>
        </mxCell>
        <mxCell id="byTplBRAekraVyJS9zgL-36" value="Система дистанционного обучения (СДО)" style="text;html=1;align=center;verticalAlign=middle;whiteSpace=wrap;rounded=0;" parent="8uEbxN0wSlgFQSG_SQVq-2" vertex="1">
          <mxGeometry y="46" width="400" height="30" as="geometry" />
        </mxCell>
        <mxCell id="gj7Lqz_uDxO7MRF6QAoS-5" value="Портал (Заявки на обучение)" style="swimlane;html=1;childLayout=stackLayout;resizeParent=1;resizeParentMax=0;horizontal=0;startSize=20;horizontalStack=0;swimlaneFillColor=#FFFFFF;" parent="1" vertex="1">
          <mxGeometry x="-320" y="-50" width="1400" height="745" as="geometry" />
        </mxCell>
        <mxCell id="gj7Lqz_uDxO7MRF6QAoS-6" value="Пользователь" style="swimlane;html=1;startSize=20;horizontal=0;fillColor=none;strokeColor=#4E668A;swimlaneFillColor=#FFFFFF;" parent="gj7Lqz_uDxO7MRF6QAoS-5" vertex="1">
          <mxGeometry x="20" width="1380" height="218" as="geometry" />
        </mxCell>
        <mxCell id="8uEbxN0wSlgFQSG_SQVq-21" value="" style="strokeWidth=2;html=1;shape=mxgraph.flowchart.start_2;whiteSpace=wrap;fillColor=#97D077;strokeColor=#82b366;" vertex="1" parent="gj7Lqz_uDxO7MRF6QAoS-6">
          <mxGeometry x="70" y="33" width="30" height="30" as="geometry" />
        </mxCell>
        <mxCell id="byTplBRAekraVyJS9zgL-37" value="&lt;span style=&quot;font-size: 12px;&quot;&gt;Желание пройти обучение&lt;/span&gt;" style="text;html=1;align=center;verticalAlign=middle;whiteSpace=wrap;rounded=0;fontSize=12;" parent="gj7Lqz_uDxO7MRF6QAoS-6" vertex="1">
          <mxGeometry x="15" y="63" width="140" height="30" as="geometry" />
        </mxCell>
        <mxCell id="8uEbxN0wSlgFQSG_SQVq-42" value="" style="edgeStyle=elbowEdgeStyle;elbow=vertical;endArrow=classic;html=1;curved=0;rounded=0;endSize=8;startSize=8;" edge="1" parent="gj7Lqz_uDxO7MRF6QAoS-6">
          <mxGeometry width="50" height="50" relative="1" as="geometry">
            <mxPoint x="100" y="48" as="sourcePoint" />
            <mxPoint x="220" y="270" as="targetPoint" />
            <Array as="points">
              <mxPoint x="200" y="48" />
            </Array>
          </mxGeometry>
        </mxCell>
        <mxCell id="8uEbxN0wSlgFQSG_SQVq-100" value="" style="edgeStyle=orthogonalEdgeStyle;rounded=0;orthogonalLoop=1;jettySize=auto;html=1;" edge="1" parent="gj7Lqz_uDxO7MRF6QAoS-6" source="8uEbxN0wSlgFQSG_SQVq-65" target="8uEbxN0wSlgFQSG_SQVq-98">
          <mxGeometry relative="1" as="geometry" />
        </mxCell>
        <mxCell id="8uEbxN0wSlgFQSG_SQVq-65" value="Заполнение&lt;span style=&quot;background-color: initial;&quot;&gt;&amp;nbsp;формы вручную&lt;/span&gt;" style="whiteSpace=wrap;html=1;fillColor=#FFFFFF;labelBackgroundColor=none;rounded=1;" vertex="1" parent="gj7Lqz_uDxO7MRF6QAoS-6">
          <mxGeometry x="750" y="115" width="120" height="60" as="geometry" />
        </mxCell>
        <mxCell id="8uEbxN0wSlgFQSG_SQVq-91" value="" style="edgeStyle=orthogonalEdgeStyle;rounded=0;orthogonalLoop=1;jettySize=auto;html=1;" edge="1" parent="gj7Lqz_uDxO7MRF6QAoS-6" source="8uEbxN0wSlgFQSG_SQVq-89" target="8uEbxN0wSlgFQSG_SQVq-90">
          <mxGeometry relative="1" as="geometry" />
        </mxCell>
        <mxCell id="8uEbxN0wSlgFQSG_SQVq-92" value="" style="edgeStyle=orthogonalEdgeStyle;rounded=0;orthogonalLoop=1;jettySize=auto;html=1;" edge="1" parent="gj7Lqz_uDxO7MRF6QAoS-6" source="8uEbxN0wSlgFQSG_SQVq-89" target="8uEbxN0wSlgFQSG_SQVq-65">
          <mxGeometry relative="1" as="geometry" />
        </mxCell>
        <mxCell id="8uEbxN0wSlgFQSG_SQVq-89" value="" style="points=[[0.25,0.25,0],[0.5,0,0],[0.75,0.25,0],[1,0.5,0],[0.75,0.75,0],[0.5,1,0],[0.25,0.75,0],[0,0.5,0]];shape=mxgraph.bpmn.gateway2;html=1;verticalLabelPosition=bottom;labelBackgroundColor=#ffffff;verticalAlign=top;align=center;perimeter=rhombusPerimeter;outlineConnect=0;outline=none;symbol=none;gwType=exclusive;" vertex="1" parent="gj7Lqz_uDxO7MRF6QAoS-6">
          <mxGeometry x="615" y="120" width="50" height="50" as="geometry" />
        </mxCell>
        <mxCell id="8uEbxN0wSlgFQSG_SQVq-97" value="" style="edgeStyle=orthogonalEdgeStyle;rounded=0;orthogonalLoop=1;jettySize=auto;html=1;" edge="1" parent="gj7Lqz_uDxO7MRF6QAoS-6" source="8uEbxN0wSlgFQSG_SQVq-90" target="8uEbxN0wSlgFQSG_SQVq-96">
          <mxGeometry relative="1" as="geometry" />
        </mxCell>
        <mxCell id="8uEbxN0wSlgFQSG_SQVq-90" value="Загрузка файла&amp;nbsp;&lt;div&gt;со списком людей&lt;/div&gt;&lt;div&gt;&amp;nbsp;на обучение&lt;/div&gt;" style="rounded=1;whiteSpace=wrap;html=1;verticalAlign=top;labelBackgroundColor=#ffffff;" vertex="1" parent="gj7Lqz_uDxO7MRF6QAoS-6">
          <mxGeometry x="580" y="18" width="120" height="60" as="geometry" />
        </mxCell>
        <mxCell id="8uEbxN0wSlgFQSG_SQVq-99" value="" style="edgeStyle=orthogonalEdgeStyle;rounded=0;orthogonalLoop=1;jettySize=auto;html=1;" edge="1" parent="gj7Lqz_uDxO7MRF6QAoS-6" source="8uEbxN0wSlgFQSG_SQVq-96" target="8uEbxN0wSlgFQSG_SQVq-98">
          <mxGeometry relative="1" as="geometry" />
        </mxCell>
        <mxCell id="8uEbxN0wSlgFQSG_SQVq-96" value="Дозаполнение формы вручную" style="rounded=1;whiteSpace=wrap;html=1;verticalAlign=top;labelBackgroundColor=#ffffff;" vertex="1" parent="gj7Lqz_uDxO7MRF6QAoS-6">
          <mxGeometry x="750" y="18" width="120" height="60" as="geometry" />
        </mxCell>
        <mxCell id="8uEbxN0wSlgFQSG_SQVq-98" value="Отправка формы&amp;nbsp;&lt;div&gt;на согласование&lt;/div&gt;" style="whiteSpace=wrap;html=1;fillColor=#FFFFFF;labelBackgroundColor=none;rounded=1;" vertex="1" parent="gj7Lqz_uDxO7MRF6QAoS-6">
          <mxGeometry x="920" y="63" width="120" height="60" as="geometry" />
        </mxCell>
        <mxCell id="8uEbxN0wSlgFQSG_SQVq-23" value="Авторизация и аутен" style="swimlane;html=1;startSize=20;horizontal=0;fillColor=none;strokeColor=#4E668A;swimlaneFillColor=none;" vertex="1" parent="gj7Lqz_uDxO7MRF6QAoS-5">
          <mxGeometry x="20" y="218" width="1380" height="150" as="geometry" />
        </mxCell>
        <mxCell id="8uEbxN0wSlgFQSG_SQVq-31" value="Авторизация&amp;nbsp;&lt;div&gt;и аутентификация&amp;nbsp;&lt;/div&gt;" style="shape=label;rectStyle=rounded;size=10;taskMarker=send;labelBackgroundColor=none;fillColor=#FFFFFF;rounded=1;whiteSpace=wrap;html=1;" vertex="1" parent="8uEbxN0wSlgFQSG_SQVq-23">
          <mxGeometry x="150" y="52" width="140" height="60" as="geometry" />
        </mxCell>
        <mxCell id="8uEbxN0wSlgFQSG_SQVq-18" value="AD" style="swimlane;html=1;startSize=20;horizontal=0;fillColor=default;strokeColor=#4E668A;swimlaneFillColor=none;" vertex="1" parent="gj7Lqz_uDxO7MRF6QAoS-5">
          <mxGeometry x="20" y="368" width="1380" height="162" as="geometry" />
        </mxCell>
        <mxCell id="8uEbxN0wSlgFQSG_SQVq-62" value="Получение данных&amp;nbsp;&lt;div&gt;о пользователях&lt;/div&gt;" style="shape=label;rectStyle=rounded;size=10;taskMarker=send;labelBackgroundColor=none;fillColor=#FFFFFF;rounded=1;whiteSpace=wrap;html=1;" vertex="1" parent="8uEbxN0wSlgFQSG_SQVq-18">
          <mxGeometry x="392.5" y="44" width="135" height="60" as="geometry" />
        </mxCell>
        <mxCell id="8uEbxN0wSlgFQSG_SQVq-61" value="" style="edgeStyle=elbowEdgeStyle;elbow=vertical;endArrow=classic;html=1;curved=0;rounded=0;endSize=8;startSize=8;exitX=1;exitY=0.5;exitDx=0;exitDy=0;" edge="1" parent="gj7Lqz_uDxO7MRF6QAoS-5" source="8uEbxN0wSlgFQSG_SQVq-31">
          <mxGeometry width="50" height="50" relative="1" as="geometry">
            <mxPoint x="330" y="301" as="sourcePoint" />
            <mxPoint x="480" y="411" as="targetPoint" />
            <Array as="points">
              <mxPoint x="390" y="301" />
            </Array>
          </mxGeometry>
        </mxCell>
        <mxCell id="gj7Lqz_uDxO7MRF6QAoS-7" value="Сотрудник" style="swimlane;html=1;startSize=20;horizontal=0;fillColor=default;strokeColor=#000000;gradientColor=none;swimlaneFillColor=none;" parent="gj7Lqz_uDxO7MRF6QAoS-5" vertex="1">
          <mxGeometry x="20" y="530" width="1380" height="215" as="geometry">
            <mxRectangle x="20" y="215" width="1790" height="30" as="alternateBounds" />
          </mxGeometry>
        </mxCell>
        <mxCell id="8uEbxN0wSlgFQSG_SQVq-56" value="" style="edgeStyle=orthogonalEdgeStyle;rounded=0;orthogonalLoop=1;jettySize=auto;html=1;entryX=-0.02;entryY=0.623;entryDx=0;entryDy=0;entryPerimeter=0;" edge="1" parent="gj7Lqz_uDxO7MRF6QAoS-7" target="8uEbxN0wSlgFQSG_SQVq-28">
          <mxGeometry relative="1" as="geometry">
            <mxPoint x="1035" y="40" as="sourcePoint" />
            <mxPoint x="1090" y="40" as="targetPoint" />
          </mxGeometry>
        </mxCell>
        <mxCell id="DeSNE2LEJQVDBhBTEOND-13" value="Согласовал" style="shape=label;rectStyle=rounded;size=10;taskMarker=send;labelBackgroundColor=none;fillColor=#FFFFFF;rounded=1;whiteSpace=wrap;html=1;" parent="gj7Lqz_uDxO7MRF6QAoS-7" vertex="1">
          <mxGeometry x="960" y="7.5" width="90" height="60" as="geometry" />
        </mxCell>
        <mxCell id="8uEbxN0wSlgFQSG_SQVq-73" value="" style="edgeStyle=orthogonalEdgeStyle;rounded=0;orthogonalLoop=1;jettySize=auto;html=1;entryX=0.987;entryY=0.393;entryDx=0;entryDy=0;entryPerimeter=0;exitX=-0.008;exitY=0.469;exitDx=0;exitDy=0;exitPerimeter=0;" edge="1" parent="gj7Lqz_uDxO7MRF6QAoS-7" source="byTplBRAekraVyJS9zgL-21" target="8uEbxN0wSlgFQSG_SQVq-48">
          <mxGeometry relative="1" as="geometry">
            <mxPoint x="740" y="30" as="sourcePoint" />
            <Array as="points">
              <mxPoint x="740" y="36" />
            </Array>
          </mxGeometry>
        </mxCell>
        <mxCell id="byTplBRAekraVyJS9zgL-21" value="Отклонил" style="shape=label;rectStyle=rounded;size=10;taskMarker=send;labelBackgroundColor=none;fillColor=#FFFFFF;rounded=1;whiteSpace=wrap;html=1;" parent="gj7Lqz_uDxO7MRF6QAoS-7" vertex="1">
          <mxGeometry x="745" y="7.5" width="90" height="60" as="geometry" />
        </mxCell>
        <mxCell id="8uEbxN0wSlgFQSG_SQVq-28" value="" style="strokeWidth=2;html=1;shape=mxgraph.flowchart.start_2;whiteSpace=wrap;fillColor=#FF0000;strokeColor=#000000;" vertex="1" parent="gj7Lqz_uDxO7MRF6QAoS-7">
          <mxGeometry x="1135" y="22.5" width="30" height="30" as="geometry" />
        </mxCell>
        <mxCell id="8uEbxN0wSlgFQSG_SQVq-45" value="&lt;span style=&quot;font-size: 12px;&quot;&gt;Заявка на обучение согласована&lt;/span&gt;" style="text;html=1;align=center;verticalAlign=middle;whiteSpace=wrap;rounded=0;fontSize=12;" vertex="1" parent="gj7Lqz_uDxO7MRF6QAoS-7">
          <mxGeometry x="1080" y="54.5" width="140" height="30" as="geometry" />
        </mxCell>
        <mxCell id="8uEbxN0wSlgFQSG_SQVq-88" value="" style="edgeStyle=orthogonalEdgeStyle;rounded=0;orthogonalLoop=1;jettySize=auto;html=1;" edge="1" parent="gj7Lqz_uDxO7MRF6QAoS-7" source="G3vWXNh6A1pPj3LREwGl-22" target="8uEbxN0wSlgFQSG_SQVq-87">
          <mxGeometry relative="1" as="geometry" />
        </mxCell>
        <mxCell id="G3vWXNh6A1pPj3LREwGl-22" value="" style="shape=mxgraph.bpmn.gateway2;html=1;verticalLabelPosition=bottom;labelBackgroundColor=#ffffff;verticalAlign=top;align=center;perimeter=rhombusPerimeter;outlineConnect=0;outline=none;symbol=none;gwType=parallel;fillColor=#E6E6E6;" parent="gj7Lqz_uDxO7MRF6QAoS-7" vertex="1">
          <mxGeometry x="880" y="29.5" width="50" height="55" as="geometry" />
        </mxCell>
        <mxCell id="byTplBRAekraVyJS9zgL-22" value="" style="edgeStyle=orthogonalEdgeStyle;rounded=0;orthogonalLoop=1;jettySize=auto;html=1;" parent="gj7Lqz_uDxO7MRF6QAoS-7" source="G3vWXNh6A1pPj3LREwGl-22" target="byTplBRAekraVyJS9zgL-21" edge="1">
          <mxGeometry relative="1" as="geometry" />
        </mxCell>
        <mxCell id="byTplBRAekraVyJS9zgL-26" value="" style="edgeStyle=orthogonalEdgeStyle;rounded=0;orthogonalLoop=1;jettySize=auto;html=1;entryX=0;entryY=0.5;entryDx=0;entryDy=0;" parent="gj7Lqz_uDxO7MRF6QAoS-7" source="G3vWXNh6A1pPj3LREwGl-22" target="DeSNE2LEJQVDBhBTEOND-13" edge="1">
          <mxGeometry relative="1" as="geometry" />
        </mxCell>
        <mxCell id="8uEbxN0wSlgFQSG_SQVq-48" value="" style="strokeWidth=2;html=1;shape=mxgraph.flowchart.start_2;whiteSpace=wrap;fillColor=#FF0000;strokeColor=#000000;" vertex="1" parent="gj7Lqz_uDxO7MRF6QAoS-7">
          <mxGeometry x="650" y="24.5" width="30" height="30" as="geometry" />
        </mxCell>
        <mxCell id="8uEbxN0wSlgFQSG_SQVq-49" value="&lt;span style=&quot;font-size: 12px;&quot;&gt;Заявка на обучение отклонена&lt;/span&gt;" style="text;html=1;align=center;verticalAlign=middle;whiteSpace=wrap;rounded=0;fontSize=12;" vertex="1" parent="gj7Lqz_uDxO7MRF6QAoS-7">
          <mxGeometry x="595" y="54.5" width="140" height="30" as="geometry" />
        </mxCell>
        <mxCell id="8uEbxN0wSlgFQSG_SQVq-55" value="" style="endArrow=classic;html=1;rounded=0;dashed=1;startArrow=oval;startFill=0;strokeColor=default;exitX=1;exitY=0.5;exitDx=0;exitDy=0;exitPerimeter=0;" edge="1" parent="gj7Lqz_uDxO7MRF6QAoS-7">
          <mxGeometry width="50" height="50" relative="1" as="geometry">
            <mxPoint x="1167.9999999999998" y="37.5" as="sourcePoint" />
            <mxPoint x="1463" y="40" as="targetPoint" />
          </mxGeometry>
        </mxCell>
        <mxCell id="8uEbxN0wSlgFQSG_SQVq-87" value="Отправил&amp;nbsp;&lt;div&gt;на доработку&lt;/div&gt;" style="shape=label;rectStyle=rounded;size=10;taskMarker=send;labelBackgroundColor=none;fillColor=#FFFFFF;rounded=1;whiteSpace=wrap;html=1;" vertex="1" parent="gj7Lqz_uDxO7MRF6QAoS-7">
          <mxGeometry x="860" y="110" width="90" height="60" as="geometry" />
        </mxCell>
        <mxCell id="8uEbxN0wSlgFQSG_SQVq-66" value="" style="edgeStyle=orthogonalEdgeStyle;rounded=0;orthogonalLoop=1;jettySize=auto;html=1;" edge="1" parent="gj7Lqz_uDxO7MRF6QAoS-5" source="8uEbxN0wSlgFQSG_SQVq-62" target="8uEbxN0wSlgFQSG_SQVq-89">
          <mxGeometry relative="1" as="geometry">
            <mxPoint x="660" y="190" as="targetPoint" />
          </mxGeometry>
        </mxCell>
        <mxCell id="8uEbxN0wSlgFQSG_SQVq-102" value="" style="edgeStyle=orthogonalEdgeStyle;rounded=0;orthogonalLoop=1;jettySize=auto;html=1;" edge="1" parent="gj7Lqz_uDxO7MRF6QAoS-5" source="8uEbxN0wSlgFQSG_SQVq-98" target="G3vWXNh6A1pPj3LREwGl-22">
          <mxGeometry relative="1" as="geometry">
            <mxPoint x="925" y="540" as="targetPoint" />
            <Array as="points">
              <mxPoint x="1140" y="93" />
              <mxPoint x="1140" y="297" />
              <mxPoint x="925" y="297" />
            </Array>
          </mxGeometry>
        </mxCell>
      </root>
    </mxGraphModel>
  </diagram>
  <diagram id="HCq9DOm8jIu3lRLJQ98l" name="Purchase stock">
    <mxGraphModel dx="2230" dy="1533" grid="1" gridSize="10" guides="1" tooltips="1" connect="1" arrows="1" fold="1" page="0" pageScale="1" pageWidth="827" pageHeight="1169" math="0" shadow="0">
      <root>
        <mxCell id="VR5IMITfkwXBvMDUpB2b-0" />
        <mxCell id="VR5IMITfkwXBvMDUpB2b-1" parent="VR5IMITfkwXBvMDUpB2b-0" />
        <mxCell id="OpYRb17qw4wrMRBJx0gq-3" style="edgeStyle=orthogonalEdgeStyle;rounded=0;orthogonalLoop=1;jettySize=auto;html=1;" edge="1" parent="VR5IMITfkwXBvMDUpB2b-1" source="EpqYW-o16c6DaKRRVxr--0" target="EpqYW-o16c6DaKRRVxr--2">
          <mxGeometry relative="1" as="geometry">
            <Array as="points">
              <mxPoint x="-20" y="-60" />
              <mxPoint x="-20" y="-10" />
            </Array>
          </mxGeometry>
        </mxCell>
        <mxCell id="EpqYW-o16c6DaKRRVxr--0" value="&lt;div&gt;Items in stock &lt;br&gt;&lt;/div&gt;&lt;div&gt;below minimum number&lt;/div&gt;" style="shape=mxgraph.bpmn.event;html=1;verticalLabelPosition=bottom;labelBackgroundColor=#ffffff;verticalAlign=top;align=center;perimeter=ellipsePerimeter;outlineConnect=0;aspect=fixed;outline=standard;symbol=conditional;" vertex="1" parent="VR5IMITfkwXBvMDUpB2b-1">
          <mxGeometry x="-120" y="-80" width="40" height="40" as="geometry" />
        </mxCell>
        <mxCell id="OpYRb17qw4wrMRBJx0gq-2" style="edgeStyle=orthogonalEdgeStyle;rounded=0;orthogonalLoop=1;jettySize=auto;html=1;" edge="1" parent="VR5IMITfkwXBvMDUpB2b-1" source="EpqYW-o16c6DaKRRVxr--1" target="EpqYW-o16c6DaKRRVxr--2">
          <mxGeometry relative="1" as="geometry">
            <Array as="points">
              <mxPoint x="-20" y="60" />
              <mxPoint x="-20" y="20" />
            </Array>
          </mxGeometry>
        </mxCell>
        <UserObject label="" link="data:page/id,C22Zyo9x9_IkmYV2H3KQ" id="EpqYW-o16c6DaKRRVxr--1">
          <mxCell style="shape=mxgraph.bpmn.event;html=1;verticalLabelPosition=bottom;labelBackgroundColor=#ffffff;verticalAlign=top;align=center;perimeter=ellipsePerimeter;outlineConnect=0;aspect=fixed;outline=standard;symbol=general;" vertex="1" parent="VR5IMITfkwXBvMDUpB2b-1">
            <mxGeometry x="-120" y="40" width="40" height="40" as="geometry" />
          </mxCell>
        </UserObject>
        <mxCell id="EpqYW-o16c6DaKRRVxr--2" value="Check if available &#xa;from suppliers&#xa;" style="shape=mxgraph.bpmn.task;rectStyle=rounded;size=10;taskMarker=abstract;isLoopStandard=1;fontFamily=Helvetica;fontSize=12;fontColor=#000000;align=center;strokeColor=#000000;fillColor=#ffffff;" vertex="1" parent="VR5IMITfkwXBvMDUpB2b-1">
          <mxGeometry x="40" y="-40" width="120" height="80" as="geometry" />
        </mxCell>
        <mxCell id="EpqYW-o16c6DaKRRVxr--3" value="Available?" style="shape=mxgraph.bpmn.gateway2;html=1;verticalLabelPosition=bottom;labelBackgroundColor=#ffffff;verticalAlign=top;align=center;perimeter=rhombusPerimeter;outlineConnect=0;outline=none;symbol=none;gwType=exclusive;labelBorderColor=none;" vertex="1" parent="VR5IMITfkwXBvMDUpB2b-1">
          <mxGeometry x="220" y="-20" width="40" height="40" as="geometry" />
        </mxCell>
        <mxCell id="EpqYW-o16c6DaKRRVxr--4" value="" style="edgeStyle=orthogonalEdgeStyle;rounded=0;orthogonalLoop=1;jettySize=auto;html=1;" edge="1" parent="VR5IMITfkwXBvMDUpB2b-1" source="EpqYW-o16c6DaKRRVxr--2" target="EpqYW-o16c6DaKRRVxr--3">
          <mxGeometry relative="1" as="geometry" />
        </mxCell>
        <mxCell id="EpqYW-o16c6DaKRRVxr--5" value="Order from supplier" style="shape=mxgraph.bpmn.task;rectStyle=rounded;size=10;taskMarker=abstract;isLoopSub=1;fontFamily=Helvetica;fontSize=12;fontColor=#000000;align=center;strokeColor=#000000;fillColor=#ffffff;" vertex="1" parent="VR5IMITfkwXBvMDUpB2b-1">
          <mxGeometry x="360" y="-120" width="120" height="80" as="geometry" />
        </mxCell>
        <mxCell id="EpqYW-o16c6DaKRRVxr--6" value="" style="edgeStyle=orthogonalEdgeStyle;rounded=0;orthogonalLoop=1;jettySize=auto;html=1;" edge="1" parent="VR5IMITfkwXBvMDUpB2b-1" source="EpqYW-o16c6DaKRRVxr--3" target="EpqYW-o16c6DaKRRVxr--5">
          <mxGeometry relative="1" as="geometry">
            <Array as="points">
              <mxPoint x="240" y="-80" />
            </Array>
          </mxGeometry>
        </mxCell>
        <mxCell id="OpYRb17qw4wrMRBJx0gq-4" value="In stock" style="edgeLabel;html=1;align=center;verticalAlign=middle;resizable=0;points=[];" vertex="1" connectable="0" parent="EpqYW-o16c6DaKRRVxr--6">
          <mxGeometry x="-0.4" y="-2" relative="1" as="geometry">
            <mxPoint x="-2" y="34" as="offset" />
          </mxGeometry>
        </mxCell>
        <mxCell id="Mlp8mXJWqpWX_r7N0x4a-2" style="edgeStyle=orthogonalEdgeStyle;rounded=0;orthogonalLoop=1;jettySize=auto;html=1;" edge="1" parent="VR5IMITfkwXBvMDUpB2b-1" source="Mlp8mXJWqpWX_r7N0x4a-0" target="EpqYW-o16c6DaKRRVxr--5">
          <mxGeometry relative="1" as="geometry">
            <Array as="points">
              <mxPoint x="420" />
            </Array>
          </mxGeometry>
        </mxCell>
        <mxCell id="Mlp8mXJWqpWX_r7N0x4a-0" value="Delivery delayed" style="shape=mxgraph.bpmn.event;html=1;verticalLabelPosition=bottom;labelBackgroundColor=#ffffff;verticalAlign=top;align=center;perimeter=ellipsePerimeter;outlineConnect=0;aspect=fixed;outline=throwing;symbol=escalation;" vertex="1" parent="VR5IMITfkwXBvMDUpB2b-1">
          <mxGeometry x="350" y="-20" width="40" height="40" as="geometry" />
        </mxCell>
        <mxCell id="Mlp8mXJWqpWX_r7N0x4a-1" value="3+ days" style="edgeStyle=orthogonalEdgeStyle;rounded=0;orthogonalLoop=1;jettySize=auto;html=1;" edge="1" parent="VR5IMITfkwXBvMDUpB2b-1" source="EpqYW-o16c6DaKRRVxr--3" target="Mlp8mXJWqpWX_r7N0x4a-0">
          <mxGeometry x="0.1111" y="10" relative="1" as="geometry">
            <mxPoint as="offset" />
          </mxGeometry>
        </mxCell>
        <mxCell id="OpYRb17qw4wrMRBJx0gq-1" style="edgeStyle=orthogonalEdgeStyle;rounded=0;orthogonalLoop=1;jettySize=auto;html=1;startArrow=none;" edge="1" parent="VR5IMITfkwXBvMDUpB2b-1" source="Zl_YAaJtnaELgSoCP4CO-0" target="OpYRb17qw4wrMRBJx0gq-0">
          <mxGeometry relative="1" as="geometry" />
        </mxCell>
        <mxCell id="Mlp8mXJWqpWX_r7N0x4a-3" value="Items received" style="shape=mxgraph.bpmn.event;html=1;verticalLabelPosition=bottom;labelBackgroundColor=#ffffff;verticalAlign=top;align=center;perimeter=ellipsePerimeter;outlineConnect=0;aspect=fixed;outline=boundInt;symbol=message;" vertex="1" parent="VR5IMITfkwXBvMDUpB2b-1">
          <mxGeometry x="530" y="-100" width="40" height="40" as="geometry" />
        </mxCell>
        <mxCell id="Mlp8mXJWqpWX_r7N0x4a-4" value="" style="edgeStyle=orthogonalEdgeStyle;rounded=0;orthogonalLoop=1;jettySize=auto;html=1;" edge="1" parent="VR5IMITfkwXBvMDUpB2b-1" source="EpqYW-o16c6DaKRRVxr--5" target="Mlp8mXJWqpWX_r7N0x4a-3">
          <mxGeometry relative="1" as="geometry" />
        </mxCell>
        <UserObject label="" link="data:page/id,C22Zyo9x9_IkmYV2H3KQ" id="OpYRb17qw4wrMRBJx0gq-0">
          <mxCell style="shape=mxgraph.bpmn.event;html=1;verticalLabelPosition=bottom;labelBackgroundColor=#ffffff;verticalAlign=top;align=center;perimeter=ellipsePerimeter;outlineConnect=0;aspect=fixed;outline=end;symbol=terminate;" vertex="1" parent="VR5IMITfkwXBvMDUpB2b-1">
            <mxGeometry x="790" y="-100" width="40" height="40" as="geometry" />
          </mxCell>
        </UserObject>
        <UserObject label="Not available" link="data:page/id,C22Zyo9x9_IkmYV2H3KQ" id="OpYRb17qw4wrMRBJx0gq-5">
          <mxCell style="shape=mxgraph.bpmn.event;html=1;verticalLabelPosition=bottom;labelBackgroundColor=#ffffff;verticalAlign=top;align=center;perimeter=ellipsePerimeter;outlineConnect=0;aspect=fixed;outline=end;symbol=error;" vertex="1" parent="VR5IMITfkwXBvMDUpB2b-1">
            <mxGeometry x="220" y="90" width="40" height="40" as="geometry" />
          </mxCell>
        </UserObject>
        <mxCell id="OpYRb17qw4wrMRBJx0gq-6" value="" style="edgeStyle=orthogonalEdgeStyle;rounded=0;orthogonalLoop=1;jettySize=auto;html=1;" edge="1" parent="VR5IMITfkwXBvMDUpB2b-1" source="EpqYW-o16c6DaKRRVxr--3" target="OpYRb17qw4wrMRBJx0gq-5">
          <mxGeometry relative="1" as="geometry" />
        </mxCell>
        <mxCell id="Zl_YAaJtnaELgSoCP4CO-0" value="Update inventory" style="shape=mxgraph.bpmn.task;rectStyle=rounded;size=10;taskMarker=manual;labelBackgroundColor=#ffffff;" vertex="1" parent="VR5IMITfkwXBvMDUpB2b-1">
          <mxGeometry x="610" y="-120" width="120" height="80" as="geometry" />
        </mxCell>
        <mxCell id="Zl_YAaJtnaELgSoCP4CO-1" value="" style="edgeStyle=orthogonalEdgeStyle;rounded=0;orthogonalLoop=1;jettySize=auto;html=1;endArrow=none;" edge="1" parent="VR5IMITfkwXBvMDUpB2b-1" source="Mlp8mXJWqpWX_r7N0x4a-3" target="Zl_YAaJtnaELgSoCP4CO-0">
          <mxGeometry relative="1" as="geometry">
            <mxPoint x="570" y="-80" as="sourcePoint" />
            <mxPoint x="800" y="-80" as="targetPoint" />
          </mxGeometry>
        </mxCell>
        <mxCell id="AqVqkzSfWaMEc31fuOZP-21" value="" style="rounded=1;whiteSpace=wrap;html=1;container=1;collapsible=0;absoluteArcSize=1;arcSize=20;childLayout=stackLayout;horizontal=1;horizontalStack=0;resizeParent=1;resizeParentMax=0;resizeLast=0;labelBackgroundColor=none;fillColor=#FFFFFF;" vertex="1" parent="VR5IMITfkwXBvMDUpB2b-1">
          <mxGeometry x="-170" y="410" width="120" height="100" as="geometry" />
        </mxCell>
        <mxCell id="AqVqkzSfWaMEc31fuOZP-22" value="Purchasing" style="html=1;shape=mxgraph.basic.rect;size=10;rectStyle=rounded;bottomRightStyle=square;bottomLeftStyle=square;part=1;" vertex="1" parent="AqVqkzSfWaMEc31fuOZP-21">
          <mxGeometry width="120" height="20" as="geometry" />
        </mxCell>
        <mxCell id="AqVqkzSfWaMEc31fuOZP-23" value="Do you have these &#xa;out-of-stock items?" style="shape=mxgraph.bpmn.task;arcSize=0;taskMarker=abstract;part=1;isLoopMultiSeq=1;" vertex="1" parent="AqVqkzSfWaMEc31fuOZP-21">
          <mxGeometry y="20" width="120" height="60" as="geometry" />
        </mxCell>
        <mxCell id="AqVqkzSfWaMEc31fuOZP-24" value="Suppliers" style="html=1;shape=mxgraph.basic.rect;size=10;rectStyle=rounded;topRightStyle=square;topLeftStyle=square;fillColor=#C0C0C0;part=1;" vertex="1" parent="AqVqkzSfWaMEc31fuOZP-21">
          <mxGeometry y="80" width="120" height="20" as="geometry" />
        </mxCell>
        <mxCell id="AqVqkzSfWaMEc31fuOZP-26" value="Answers" style="shape=message;fillColor=#C0C0C0;labelBackgroundColor=none;align=left;whiteSpace=wrap;html=1;labelPosition=right;verticalLabelPosition=middle;verticalAlign=middle;" vertex="1" parent="VR5IMITfkwXBvMDUpB2b-1">
          <mxGeometry x="-130" y="540" width="40" height="30" as="geometry" />
        </mxCell>
        <mxCell id="AqVqkzSfWaMEc31fuOZP-27" value="" style="edgeStyle=orthogonalEdgeStyle;html=1;elbow=horizontal;endArrow=none;labelBackgroundColor=none;endSize=12;endFill=0;dashed=1;dashPattern=1 2;rounded=0;strokeColor=#000000;strokeWidth=1;" edge="1" source="AqVqkzSfWaMEc31fuOZP-24" target="AqVqkzSfWaMEc31fuOZP-26" parent="VR5IMITfkwXBvMDUpB2b-1">
          <mxGeometry relative="1" as="geometry">
            <mxPoint x="100" y="550" as="sourcePoint" />
          </mxGeometry>
        </mxCell>
        <mxCell id="AqVqkzSfWaMEc31fuOZP-32" value="Questions" style="shape=message;labelBackgroundColor=none;fillColor=#FFFFFF;align=left;html=1;labelPosition=right;verticalLabelPosition=middle;verticalAlign=middle;" vertex="1" parent="VR5IMITfkwXBvMDUpB2b-1">
          <mxGeometry x="-130" y="360" width="40" height="30" as="geometry" />
        </mxCell>
        <mxCell id="AqVqkzSfWaMEc31fuOZP-33" value="" style="edgeStyle=orthogonalEdgeStyle;html=1;elbow=horizontal;endArrow=none;labelBackgroundColor=none;endSize=12;endFill=0;dashed=1;dashPattern=1 2;rounded=0;strokeColor=#000000;strokeWidth=1;labelPosition=right;verticalLabelPosition=middle;align=left;verticalAlign=middle;" edge="1" source="AqVqkzSfWaMEc31fuOZP-22" target="AqVqkzSfWaMEc31fuOZP-32" parent="VR5IMITfkwXBvMDUpB2b-1">
          <mxGeometry relative="1" as="geometry">
            <mxPoint x="450" y="420" as="sourcePoint" />
          </mxGeometry>
        </mxCell>
        <mxCell id="AqVqkzSfWaMEc31fuOZP-78" style="edgeStyle=orthogonalEdgeStyle;rounded=0;jumpStyle=arc;jumpSize=13;orthogonalLoop=1;jettySize=auto;html=1;startArrow=none;startFill=0;endArrow=classic;endFill=1;strokeColor=#000000;strokeWidth=1;" edge="1" parent="VR5IMITfkwXBvMDUpB2b-1" source="AqVqkzSfWaMEc31fuOZP-34" target="AqVqkzSfWaMEc31fuOZP-77">
          <mxGeometry relative="1" as="geometry" />
        </mxCell>
        <mxCell id="AqVqkzSfWaMEc31fuOZP-34" value="Available?" style="shape=mxgraph.bpmn.gateway2;html=1;verticalLabelPosition=bottom;labelBackgroundColor=#ffffff;verticalAlign=top;align=center;perimeter=rhombusPerimeter;outlineConnect=0;outline=none;symbol=none;gwType=exclusive;fillColor=#FFFFFF;" vertex="1" parent="VR5IMITfkwXBvMDUpB2b-1">
          <mxGeometry x="-10" y="440" width="40" height="40" as="geometry" />
        </mxCell>
        <mxCell id="AqVqkzSfWaMEc31fuOZP-35" value="" style="edgeStyle=orthogonalEdgeStyle;rounded=0;jumpStyle=arc;jumpSize=13;orthogonalLoop=1;jettySize=auto;html=1;startArrow=none;startFill=0;endArrow=classic;endFill=1;strokeColor=#000000;strokeWidth=1;" edge="1" parent="VR5IMITfkwXBvMDUpB2b-1" source="AqVqkzSfWaMEc31fuOZP-23" target="AqVqkzSfWaMEc31fuOZP-34">
          <mxGeometry relative="1" as="geometry" />
        </mxCell>
        <mxCell id="AqVqkzSfWaMEc31fuOZP-41" value="" style="rounded=1;whiteSpace=wrap;html=1;container=1;collapsible=0;absoluteArcSize=1;arcSize=20;childLayout=stackLayout;horizontal=1;horizontalStack=0;resizeParent=1;resizeParentMax=0;resizeLast=0;labelBackgroundColor=none;fillColor=#FFFFFF;align=left;" vertex="1" parent="VR5IMITfkwXBvMDUpB2b-1">
          <mxGeometry x="120" y="350" width="110" height="100" as="geometry" />
        </mxCell>
        <mxCell id="AqVqkzSfWaMEc31fuOZP-42" value="Purchasing" style="html=1;shape=mxgraph.basic.rect;size=10;rectStyle=rounded;bottomRightStyle=square;bottomLeftStyle=square;part=1;" vertex="1" parent="AqVqkzSfWaMEc31fuOZP-41">
          <mxGeometry width="110" height="20" as="geometry" />
        </mxCell>
        <mxCell id="AqVqkzSfWaMEc31fuOZP-43" value="Submit purchase &#xa;order" style="shape=mxgraph.bpmn.task;part=1;taskMarker=abstract;" vertex="1" parent="AqVqkzSfWaMEc31fuOZP-41">
          <mxGeometry y="20" width="110" height="60" as="geometry" />
        </mxCell>
        <mxCell id="AqVqkzSfWaMEc31fuOZP-44" value="Suppliers" style="html=1;shape=mxgraph.basic.rect;size=10;rectStyle=rounded;topRightStyle=square;topLeftStyle=square;fillColor=#C0C0C0;part=1;" vertex="1" parent="AqVqkzSfWaMEc31fuOZP-41">
          <mxGeometry y="80" width="110" height="20" as="geometry" />
        </mxCell>
        <mxCell id="AqVqkzSfWaMEc31fuOZP-45" value="" style="edgeStyle=orthogonalEdgeStyle;rounded=0;jumpStyle=arc;jumpSize=13;orthogonalLoop=1;jettySize=auto;html=1;startArrow=none;startFill=0;endArrow=classic;endFill=1;strokeColor=#000000;strokeWidth=1;" edge="1" parent="VR5IMITfkwXBvMDUpB2b-1" source="AqVqkzSfWaMEc31fuOZP-34" target="AqVqkzSfWaMEc31fuOZP-41">
          <mxGeometry relative="1" as="geometry">
            <mxPoint x="90" y="460" as="sourcePoint" />
            <Array as="points">
              <mxPoint x="10" y="400" />
            </Array>
          </mxGeometry>
        </mxCell>
        <mxCell id="AqVqkzSfWaMEc31fuOZP-74" value="Yes" style="edgeLabel;html=1;align=center;verticalAlign=middle;resizable=0;points=[];" vertex="1" connectable="0" parent="AqVqkzSfWaMEc31fuOZP-45">
          <mxGeometry x="-0.7286" y="-2" relative="1" as="geometry">
            <mxPoint as="offset" />
          </mxGeometry>
        </mxCell>
        <mxCell id="AqVqkzSfWaMEc31fuOZP-46" value="" style="rounded=1;whiteSpace=wrap;html=1;container=1;collapsible=0;absoluteArcSize=1;arcSize=20;childLayout=stackLayout;horizontal=1;horizontalStack=0;resizeParent=1;resizeParentMax=0;resizeLast=0;labelBackgroundColor=none;fillColor=#FFFFFF;align=left;" vertex="1" parent="VR5IMITfkwXBvMDUpB2b-1">
          <mxGeometry x="270" y="350" width="112" height="100" as="geometry" />
        </mxCell>
        <mxCell id="AqVqkzSfWaMEc31fuOZP-47" value="Suppliers" style="html=1;shape=mxgraph.basic.rect;size=10;rectStyle=rounded;bottomRightStyle=square;bottomLeftStyle=square;part=1;" vertex="1" parent="AqVqkzSfWaMEc31fuOZP-46">
          <mxGeometry width="112" height="20" as="geometry" />
        </mxCell>
        <mxCell id="AqVqkzSfWaMEc31fuOZP-48" value="Send items and &#xa;invoice" style="shape=mxgraph.bpmn.task;part=1;taskMarker=abstract;" vertex="1" parent="AqVqkzSfWaMEc31fuOZP-46">
          <mxGeometry y="20" width="112" height="60" as="geometry" />
        </mxCell>
        <mxCell id="AqVqkzSfWaMEc31fuOZP-49" value="Purchasing" style="html=1;shape=mxgraph.basic.rect;size=10;rectStyle=rounded;topRightStyle=square;topLeftStyle=square;fillColor=#C0C0C0;part=1;" vertex="1" parent="AqVqkzSfWaMEc31fuOZP-46">
          <mxGeometry y="80" width="112" height="20" as="geometry" />
        </mxCell>
        <mxCell id="AqVqkzSfWaMEc31fuOZP-50" value="" style="edgeStyle=orthogonalEdgeStyle;rounded=0;jumpStyle=arc;jumpSize=13;orthogonalLoop=1;jettySize=auto;html=1;startArrow=none;startFill=0;endArrow=classic;endFill=1;strokeColor=#000000;strokeWidth=1;" edge="1" parent="VR5IMITfkwXBvMDUpB2b-1" source="AqVqkzSfWaMEc31fuOZP-43" target="AqVqkzSfWaMEc31fuOZP-46">
          <mxGeometry relative="1" as="geometry" />
        </mxCell>
        <mxCell id="AqVqkzSfWaMEc31fuOZP-51" value="" style="rounded=1;whiteSpace=wrap;html=1;container=1;collapsible=0;absoluteArcSize=1;arcSize=20;childLayout=stackLayout;horizontal=1;horizontalStack=0;resizeParent=1;resizeParentMax=0;resizeLast=0;labelBackgroundColor=none;fillColor=#FFFFFF;align=left;" vertex="1" parent="VR5IMITfkwXBvMDUpB2b-1">
          <mxGeometry x="420" y="350" width="120" height="100" as="geometry" />
        </mxCell>
        <mxCell id="AqVqkzSfWaMEc31fuOZP-52" value="Purchasing" style="html=1;shape=mxgraph.basic.rect;size=10;rectStyle=rounded;bottomRightStyle=square;bottomLeftStyle=square;part=1;" vertex="1" parent="AqVqkzSfWaMEc31fuOZP-51">
          <mxGeometry width="120" height="20" as="geometry" />
        </mxCell>
        <mxCell id="AqVqkzSfWaMEc31fuOZP-53" value="Receive items and&#xa;pay invoice" style="shape=mxgraph.bpmn.task;part=1;taskMarker=abstract;" vertex="1" parent="AqVqkzSfWaMEc31fuOZP-51">
          <mxGeometry y="20" width="120" height="60" as="geometry" />
        </mxCell>
        <mxCell id="AqVqkzSfWaMEc31fuOZP-54" value="Suppliers" style="html=1;shape=mxgraph.basic.rect;size=10;rectStyle=rounded;topRightStyle=square;topLeftStyle=square;fillColor=#C0C0C0;part=1;" vertex="1" parent="AqVqkzSfWaMEc31fuOZP-51">
          <mxGeometry y="80" width="120" height="20" as="geometry" />
        </mxCell>
        <mxCell id="AqVqkzSfWaMEc31fuOZP-55" value="" style="rounded=1;whiteSpace=wrap;html=1;container=1;collapsible=0;absoluteArcSize=1;arcSize=20;childLayout=stackLayout;horizontal=1;horizontalStack=0;resizeParent=1;resizeParentMax=0;resizeLast=0;labelBackgroundColor=none;fillColor=#FFFFFF;align=left;" vertex="1" parent="VR5IMITfkwXBvMDUpB2b-1">
          <mxGeometry x="570" y="350" width="120" height="100" as="geometry" />
        </mxCell>
        <mxCell id="AqVqkzSfWaMEc31fuOZP-56" value="Suppliers" style="html=1;shape=mxgraph.basic.rect;size=10;rectStyle=rounded;bottomRightStyle=square;bottomLeftStyle=square;part=1;" vertex="1" parent="AqVqkzSfWaMEc31fuOZP-55">
          <mxGeometry width="120" height="20" as="geometry" />
        </mxCell>
        <mxCell id="AqVqkzSfWaMEc31fuOZP-57" value="Receive payment&#xa;and issue receipt" style="shape=mxgraph.bpmn.task;part=1;taskMarker=abstract;" vertex="1" parent="AqVqkzSfWaMEc31fuOZP-55">
          <mxGeometry y="20" width="120" height="60" as="geometry" />
        </mxCell>
        <mxCell id="AqVqkzSfWaMEc31fuOZP-58" value="Purchasing" style="html=1;shape=mxgraph.basic.rect;size=10;rectStyle=rounded;topRightStyle=square;topLeftStyle=square;fillColor=#C0C0C0;part=1;" vertex="1" parent="AqVqkzSfWaMEc31fuOZP-55">
          <mxGeometry y="80" width="120" height="20" as="geometry" />
        </mxCell>
        <mxCell id="AqVqkzSfWaMEc31fuOZP-60" style="edgeStyle=orthogonalEdgeStyle;rounded=0;jumpStyle=arc;jumpSize=13;orthogonalLoop=1;jettySize=auto;html=1;startArrow=none;startFill=0;endArrow=classic;endFill=1;strokeColor=#000000;strokeWidth=1;" edge="1" parent="VR5IMITfkwXBvMDUpB2b-1" source="AqVqkzSfWaMEc31fuOZP-48" target="AqVqkzSfWaMEc31fuOZP-53">
          <mxGeometry relative="1" as="geometry" />
        </mxCell>
        <mxCell id="AqVqkzSfWaMEc31fuOZP-61" style="edgeStyle=orthogonalEdgeStyle;rounded=0;jumpStyle=arc;jumpSize=13;orthogonalLoop=1;jettySize=auto;html=1;startArrow=none;startFill=0;endArrow=classic;endFill=1;strokeColor=#000000;strokeWidth=1;" edge="1" parent="VR5IMITfkwXBvMDUpB2b-1" source="AqVqkzSfWaMEc31fuOZP-53" target="AqVqkzSfWaMEc31fuOZP-57">
          <mxGeometry relative="1" as="geometry" />
        </mxCell>
        <mxCell id="AqVqkzSfWaMEc31fuOZP-63" value="Purchase order" style="shape=message;labelBackgroundColor=none;fillColor=#FFFFFF;align=left;html=1;labelPosition=right;verticalLabelPosition=middle;verticalAlign=middle;" vertex="1" parent="VR5IMITfkwXBvMDUpB2b-1">
          <mxGeometry x="155" y="300" width="40" height="30" as="geometry" />
        </mxCell>
        <mxCell id="AqVqkzSfWaMEc31fuOZP-64" value="" style="edgeStyle=orthogonalEdgeStyle;html=1;elbow=horizontal;endArrow=none;labelBackgroundColor=none;endSize=12;endFill=0;dashed=1;dashPattern=1 2;rounded=0;strokeColor=#000000;strokeWidth=1;labelPosition=right;verticalLabelPosition=middle;align=left;verticalAlign=middle;" edge="1" source="AqVqkzSfWaMEc31fuOZP-42" target="AqVqkzSfWaMEc31fuOZP-63" parent="VR5IMITfkwXBvMDUpB2b-1">
          <mxGeometry relative="1" as="geometry">
            <mxPoint x="500" y="370" as="sourcePoint" />
          </mxGeometry>
        </mxCell>
        <mxCell id="AqVqkzSfWaMEc31fuOZP-66" value="Items and invoice" style="shape=message;labelBackgroundColor=none;fillColor=#FFFFFF;align=left;html=1;labelPosition=right;verticalLabelPosition=middle;verticalAlign=middle;" vertex="1" parent="VR5IMITfkwXBvMDUpB2b-1">
          <mxGeometry x="306" y="300" width="40" height="30" as="geometry" />
        </mxCell>
        <mxCell id="AqVqkzSfWaMEc31fuOZP-67" value="" style="edgeStyle=orthogonalEdgeStyle;html=1;elbow=horizontal;endArrow=none;labelBackgroundColor=none;endSize=12;endFill=0;dashed=1;dashPattern=1 2;rounded=0;strokeColor=#000000;strokeWidth=1;labelPosition=right;verticalLabelPosition=middle;align=left;verticalAlign=middle;" edge="1" source="AqVqkzSfWaMEc31fuOZP-47" target="AqVqkzSfWaMEc31fuOZP-66" parent="VR5IMITfkwXBvMDUpB2b-1">
          <mxGeometry relative="1" as="geometry">
            <mxPoint x="500" y="370" as="sourcePoint" />
          </mxGeometry>
        </mxCell>
        <mxCell id="AqVqkzSfWaMEc31fuOZP-69" value="Payment" style="shape=message;labelBackgroundColor=none;fillColor=#FFFFFF;align=left;html=1;labelPosition=right;verticalLabelPosition=middle;verticalAlign=middle;" vertex="1" parent="VR5IMITfkwXBvMDUpB2b-1">
          <mxGeometry x="460" y="300" width="40" height="30" as="geometry" />
        </mxCell>
        <mxCell id="AqVqkzSfWaMEc31fuOZP-70" value="" style="edgeStyle=orthogonalEdgeStyle;html=1;elbow=horizontal;endArrow=none;labelBackgroundColor=none;endSize=12;endFill=0;dashed=1;dashPattern=1 2;rounded=0;strokeColor=#000000;strokeWidth=1;labelPosition=right;verticalLabelPosition=middle;align=left;verticalAlign=middle;" edge="1" source="AqVqkzSfWaMEc31fuOZP-52" target="AqVqkzSfWaMEc31fuOZP-69" parent="VR5IMITfkwXBvMDUpB2b-1">
          <mxGeometry relative="1" as="geometry">
            <mxPoint x="500" y="370" as="sourcePoint" />
          </mxGeometry>
        </mxCell>
        <mxCell id="AqVqkzSfWaMEc31fuOZP-72" value="Receipt" style="shape=message;labelBackgroundColor=none;fillColor=#FFFFFF;align=left;html=1;labelPosition=right;verticalLabelPosition=middle;verticalAlign=middle;" vertex="1" parent="VR5IMITfkwXBvMDUpB2b-1">
          <mxGeometry x="610" y="300" width="40" height="30" as="geometry" />
        </mxCell>
        <mxCell id="AqVqkzSfWaMEc31fuOZP-73" value="" style="edgeStyle=orthogonalEdgeStyle;html=1;elbow=horizontal;endArrow=none;labelBackgroundColor=none;endSize=12;endFill=0;dashed=1;dashPattern=1 2;rounded=0;strokeColor=#000000;strokeWidth=1;labelPosition=right;verticalLabelPosition=middle;align=left;verticalAlign=middle;" edge="1" source="AqVqkzSfWaMEc31fuOZP-56" target="AqVqkzSfWaMEc31fuOZP-72" parent="VR5IMITfkwXBvMDUpB2b-1">
          <mxGeometry relative="1" as="geometry">
            <mxPoint x="500" y="370" as="sourcePoint" />
          </mxGeometry>
        </mxCell>
        <mxCell id="AqVqkzSfWaMEc31fuOZP-75" value="" style="shape=mxgraph.bpmn.event;html=1;verticalLabelPosition=bottom;labelBackgroundColor=#ffffff;verticalAlign=top;align=center;perimeter=ellipsePerimeter;outlineConnect=0;aspect=fixed;outline=end;symbol=terminate;fillColor=#FFFFFF;" vertex="1" parent="VR5IMITfkwXBvMDUpB2b-1">
          <mxGeometry x="750" y="380" width="40" height="40" as="geometry" />
        </mxCell>
        <mxCell id="AqVqkzSfWaMEc31fuOZP-76" value="" style="edgeStyle=orthogonalEdgeStyle;rounded=0;jumpStyle=arc;jumpSize=13;orthogonalLoop=1;jettySize=auto;html=1;startArrow=none;startFill=0;endArrow=classic;endFill=1;strokeColor=#000000;strokeWidth=1;" edge="1" parent="VR5IMITfkwXBvMDUpB2b-1" source="AqVqkzSfWaMEc31fuOZP-57" target="AqVqkzSfWaMEc31fuOZP-75">
          <mxGeometry relative="1" as="geometry" />
        </mxCell>
        <mxCell id="AqVqkzSfWaMEc31fuOZP-79" style="edgeStyle=orthogonalEdgeStyle;rounded=0;jumpStyle=arc;jumpSize=13;orthogonalLoop=1;jettySize=auto;html=1;startArrow=none;startFill=0;endArrow=classic;endFill=1;strokeColor=#000000;strokeWidth=1;" edge="1" parent="VR5IMITfkwXBvMDUpB2b-1" source="AqVqkzSfWaMEc31fuOZP-77" target="AqVqkzSfWaMEc31fuOZP-75">
          <mxGeometry relative="1" as="geometry" />
        </mxCell>
        <UserObject label="Not available" id="AqVqkzSfWaMEc31fuOZP-77">
          <mxCell style="shape=mxgraph.bpmn.event;html=1;verticalLabelPosition=bottom;labelBackgroundColor=#ffffff;verticalAlign=top;align=center;perimeter=ellipsePerimeter;outlineConnect=0;aspect=fixed;outline=end;symbol=error;" vertex="1" parent="VR5IMITfkwXBvMDUpB2b-1">
            <mxGeometry x="70" y="510" width="40" height="40" as="geometry" />
          </mxCell>
        </UserObject>
        <mxCell id="AqVqkzSfWaMEc31fuOZP-80" value="Choreography model" style="text;html=1;strokeColor=none;fillColor=none;align=left;verticalAlign=middle;whiteSpace=wrap;rounded=0;labelBackgroundColor=none;fontSize=16;" vertex="1" parent="VR5IMITfkwXBvMDUpB2b-1">
          <mxGeometry x="-200" y="600" width="250" height="20" as="geometry" />
        </mxCell>
        <mxCell id="AqVqkzSfWaMEc31fuOZP-81" value="Orchestration - sub-process for restocking out-of-stock items" style="text;html=1;strokeColor=none;fillColor=none;align=left;verticalAlign=middle;whiteSpace=wrap;rounded=0;labelBackgroundColor=none;fontSize=16;" vertex="1" parent="VR5IMITfkwXBvMDUpB2b-1">
          <mxGeometry x="-200" y="160" width="585" height="20" as="geometry" />
        </mxCell>
        <mxCell id="AqVqkzSfWaMEc31fuOZP-82" value="" style="endArrow=none;html=1;fontSize=16;strokeColor=#000000;strokeWidth=1;" edge="1" parent="VR5IMITfkwXBvMDUpB2b-1">
          <mxGeometry width="50" height="50" relative="1" as="geometry">
            <mxPoint x="-240" y="210" as="sourcePoint" />
            <mxPoint x="880" y="210" as="targetPoint" />
          </mxGeometry>
        </mxCell>
      </root>
    </mxGraphModel>
  </diagram>
</mxfile>
